<?xml version="1.0" encoding="UTF-8" standalone="no"?>
<!DOCTYPE svg PUBLIC "-//W3C//DTD SVG 1.1//EN" "http://www.w3.org/Graphics/SVG/1.1/DTD/svg11.dtd">
<svg version="1.1" xmlns="http://www.w3.org/2000/svg" xmlns:xlink="http://www.w3.org/1999/xlink" preserveAspectRatio="xMidYMid meet" viewBox="0 0 640 640" width="640" height="640"><defs><path d="M276.89 259.82C289.03 250.91 291.65 233.84 282.73 221.7C273.82 209.57 256.75 206.95 244.61 215.87C232.48 224.78 229.86 241.85 238.78 253.98C245.37 262.96 256.75 267.02 267.53 264.26C267.82 264.68 270.19 268.05 270.49 268.48C270.82 269.22 271.54 269.73 272.35 269.79C273.34 269.79 281.22 269.79 282.21 269.79C282.93 269.79 283.27 269.2 282.96 268.48C281.75 266.75 278.11 261.55 276.89 259.82ZM245.01 238.17C245 229.35 252.15 222.19 260.97 222.17C269.8 222.16 276.96 229.31 276.97 238.13C276.98 243.14 274.63 247.87 270.64 250.89C270.5 250.69 269.39 249.11 269.25 248.91C268.91 248.17 268.2 247.67 267.38 247.6C266.4 247.6 258.51 247.6 257.53 247.6C256.8 247.6 256.46 248.19 256.77 248.91C257.14 249.44 260.06 253.6 260.42 254.12C251.83 253.83 245.01 246.77 245.01 238.17" id="e19xOLBqGO"></path><path d="M254.54 334.28C243.63 334.74 234.42 326.27 233.96 315.37C233.95 315.07 233.94 314.78 233.94 314.48C233.94 311.39 233.94 286.64 233.94 283.55C233.97 282.62 234.71 281.88 235.64 281.85C236.33 281.85 241.88 281.85 242.57 281.85C243.51 281.85 244.27 282.61 244.27 283.55C244.27 286.59 244.27 310.93 244.27 313.97C243.98 319.31 248.07 323.88 253.42 324.17C253.79 324.19 254.16 324.19 254.54 324.17C259.93 324.47 264.56 320.35 264.87 314.95C264.88 314.65 264.89 314.35 264.87 314.05C264.87 311 264.87 286.6 264.87 283.55C264.88 282.61 265.64 281.85 266.57 281.85C267.27 281.85 272.81 281.85 273.51 281.85C274.43 281.88 275.18 282.62 275.2 283.55C275.2 286.64 275.2 311.39 275.2 314.48C275.21 325.42 266.35 334.29 255.42 334.29C255.12 334.29 254.83 334.29 254.54 334.28" id="d27iPldWuf"></path><path d="M258.24 370.95C262.38 368.94 264.98 364.71 264.9 360.11C264.9 352.9 258.93 347.41 250.62 347.41C249.09 347.41 236.79 347.41 235.25 347.41C234.53 347.41 233.95 347.99 233.95 348.71C233.95 348.71 233.95 348.71 233.95 348.71C233.95 353.25 233.95 389.6 233.95 394.14C233.95 394.86 234.53 395.45 235.25 395.45C236.86 395.45 249.77 395.45 251.38 395.45C260.02 395.45 266.34 389.89 266.34 382.2C266.36 377.12 263.08 372.62 258.24 371.09C258.24 371.06 258.24 370.97 258.24 370.95ZM240.95 368.27L240.95 353.86C246.34 353.86 249.34 353.86 249.94 353.86C253.6 353.48 256.88 356.14 257.26 359.81C257.3 360.18 257.3 360.55 257.28 360.93C257.48 364.78 254.52 368.07 250.67 368.27C250.42 368.28 250.18 368.28 249.94 368.27C248.74 368.27 245.74 368.27 240.95 368.27ZM240.88 389.13L240.88 374.45C247.3 374.45 250.87 374.45 251.58 374.45C255.46 374.38 258.66 377.47 258.72 381.35C258.72 381.45 258.72 381.55 258.72 381.65C259.09 385.41 256.34 388.74 252.59 389.11C252.25 389.14 251.92 389.15 251.58 389.13C250.16 389.13 246.59 389.13 240.88 389.13Z" id="a2ceu0eDv"></path><path d="M0 205.45C0 282.38 0 325.12 0 333.67C-0.06 389.74 45.35 435.25 101.43 435.3C157.5 435.36 203 389.95 203.06 333.88C203.06 333.81 203.06 333.74 203.06 333.67C203.06 325.12 203.06 282.38 203.06 205.45L0 205.45Z" id="a8tHrFthSC"></path><path d="M191.91 216.6L173.96 216.6L101.53 289.04L101.53 289.04L101.53 289.04L29.09 216.6L11.15 216.6L11.15 237.09L82.31 308.25C44.53 346.04 23.54 367.03 19.34 371.23C23.21 379.69 28.37 387.49 34.63 394.36C39.09 389.91 61.39 367.61 101.53 327.47L101.53 327.47L101.53 327.47C141.66 367.61 163.96 389.91 168.42 394.36C174.69 387.49 179.85 379.69 183.72 371.23C179.52 367.03 158.53 346.04 120.74 308.25L191.91 237.09L191.91 216.6Z" id="b3D2Dy1Qt0"></path><path d="M118.35 303.91C115.64 301.93 113.16 306.34 113.16 306.34C111.46 304.03 109.82 306.53 109.82 306.53C112.12 308.12 111.92 311.84 107.57 310.9C105.13 310.5 103.21 308.62 102.75 306.2C102.97 306.28 104.05 306.68 106.01 307.39L106.01 301.98L102.89 303.14L103.94 299.34L99.05 299.34L100.09 303.14L96.98 301.98L96.97 307.39C98.93 306.68 100.02 306.28 100.24 306.2C99.77 308.62 97.85 310.5 95.42 310.9C91.07 311.84 90.87 308.12 93.16 306.53C93.16 306.53 91.53 304.03 89.83 306.34C89.83 306.34 87.34 301.93 84.63 303.91C84.63 303.91 88.45 308.63 88.93 321.2C88.93 321.2 92.53 318.89 101.49 318.98C110.46 318.89 114.06 321.2 114.06 321.2C114.53 308.63 118.35 303.91 118.35 303.91" id="b5o4tM2lB"></path><path d="M87.79 301.95C91.35 294.36 100.38 291.09 107.97 294.65C111.18 296.16 113.76 298.74 115.27 301.95C115.52 301.83 115.79 301.74 116.07 301.68C116.9 301.5 117.76 301.59 118.54 301.93C116.22 295.82 110.79 291.42 104.33 290.41C104.15 290.6 103.21 291.53 101.53 293.21L101.53 293.21L101.53 293.21C99.85 291.53 98.91 290.6 98.72 290.41C92.26 291.42 86.84 295.82 84.52 301.93C85.29 301.58 86.16 301.5 86.99 301.68C87.26 301.74 87.53 301.83 87.79 301.95Z" id="e1wYSVYtry"></path><path d="M101.49 322.71C103.54 324.75 104.67 325.89 104.9 326.12C109.49 325.79 112.82 324.82 112.82 323.67C112.82 322.26 107.75 321.11 101.49 321.11C95.24 321.11 90.17 322.26 90.17 323.67C90.17 324.82 93.5 325.79 98.09 326.12C98.31 325.89 99.45 324.75 101.49 322.71L101.49 322.71Z" id="b6GY5fpdg"></path><path d="M123.61 220.43C125.34 220.43 126.75 221.84 126.75 223.57C126.75 225.85 126.75 237.22 126.75 257.7C113.73 257.7 106.5 257.7 105.06 257.7C104.55 259.23 103.13 260.26 101.53 260.27C101.53 260.27 101.52 260.27 101.52 260.27C99.92 260.26 98.5 259.23 98 257.7C96.55 257.7 89.32 257.7 76.31 257.7C76.31 237.22 76.31 225.85 76.31 223.57C76.31 221.84 77.72 220.43 79.45 220.43C79.45 222.71 79.45 234.09 79.45 254.58C90.65 254.58 96.87 254.58 98.12 254.58C99.87 254.62 101.33 255.95 101.53 257.69C101.73 255.95 103.18 254.62 104.94 254.58C106.19 254.58 112.41 254.58 123.61 254.58L123.61 220.43M111.67 218.97C114.26 220.65 117.43 221.18 120.42 220.44C120.42 223.54 120.42 248.37 120.42 251.47C117.43 252.22 114.26 251.68 111.67 250.01C108.1 247.21 101.61 249.54 101.53 252.88C101.53 252.88 101.53 252.9 101.53 252.94L101.53 252.91L101.52 252.94C101.52 252.9 101.52 252.88 101.52 252.88C101.44 249.54 94.95 247.21 91.38 250.01C88.8 251.68 85.63 252.22 82.63 251.47C82.63 248.37 82.63 223.54 82.63 220.44C85.63 221.18 88.8 220.65 91.38 218.97C94.96 216.16 101.49 218.52 101.53 221.87C101.57 218.52 108.09 216.16 111.67 218.97M96.92 240.86C95.08 240.34 93.1 240.6 91.45 241.58C89.98 242.55 88.24 243.03 86.48 242.95C86.48 243.17 86.48 244.96 86.48 245.18C88.24 245.26 89.98 244.78 91.45 243.81C93.1 242.83 95.08 242.57 96.92 243.1C96.92 242.65 96.92 241.31 96.92 240.86ZM96.92 232.52C95.08 232 93.1 232.26 91.45 233.24C89.98 234.2 88.24 234.68 86.48 234.6C86.48 234.83 86.48 236.61 86.48 236.84C88.24 236.91 89.98 236.44 91.45 235.47C93.1 234.49 95.08 234.23 96.92 234.75C96.92 234.31 96.92 232.97 96.92 232.52ZM96.92 224.17C95.08 223.65 93.1 223.91 91.45 224.89C89.98 225.86 88.24 226.34 86.48 226.26C86.48 226.48 86.48 228.27 86.48 228.49C88.24 228.57 89.98 228.09 91.45 227.13C93.1 226.14 95.08 225.89 96.92 226.41C96.92 225.96 96.92 224.62 96.92 224.17ZM116.57 242.95C114.81 243.03 113.07 242.55 111.6 241.58C109.96 240.6 107.98 240.34 106.13 240.86C106.13 241.09 106.13 242.87 106.13 243.1C107.98 242.57 109.96 242.83 111.6 243.81C113.07 244.78 114.81 245.26 116.57 245.18C116.57 244.73 116.57 243.4 116.57 242.95ZM116.57 234.6C114.81 234.68 113.07 234.2 111.6 233.24C109.96 232.26 107.98 232 106.13 232.52C106.13 232.74 106.13 234.53 106.13 234.75C107.98 234.23 109.96 234.49 111.6 235.47C113.07 236.44 114.81 236.91 116.57 236.84C116.57 236.39 116.57 235.05 116.57 234.6ZM116.57 226.26C114.81 226.34 113.07 225.86 111.6 224.89C109.96 223.91 107.98 223.65 106.13 224.17C106.13 224.4 106.13 226.18 106.13 226.41C107.98 225.89 109.96 226.14 111.6 227.13C113.07 228.09 114.81 228.57 116.57 228.49C116.57 228.04 116.57 226.7 116.57 226.26Z" id="a36aKSY6hM"></path><path d="M67.76 402.66C67.76 402.51 67.88 402.39 68.03 402.39C68.6 402.39 73.17 402.39 73.74 402.39C73.89 402.39 74.01 402.51 74.01 402.66C74.01 402.77 74.01 403.69 74.01 403.81C74.01 403.95 73.89 404.07 73.74 404.07C73.74 404.07 73.74 404.07 73.74 404.07C73.46 404.07 72.08 404.07 69.59 404.07L69.59 406.37C71.67 406.37 72.82 406.37 73.05 406.37C73.2 406.38 73.32 406.49 73.32 406.64C73.32 406.76 73.32 407.69 73.32 407.8C73.32 407.95 73.2 408.07 73.05 408.07C73.05 408.07 73.05 408.07 73.05 408.07C72.82 408.07 71.67 408.07 69.59 408.07L69.59 410.52C72.08 410.52 73.46 410.52 73.74 410.52C73.89 410.53 74.01 410.64 74.01 410.79C74.01 410.79 74.01 410.79 74.01 410.79C74.01 410.91 74.01 411.83 74.01 411.94C74.01 412.09 73.89 412.21 73.74 412.21C73.74 412.21 73.74 412.21 73.74 412.21C73.17 412.21 68.6 412.21 68.03 412.21C67.88 412.21 67.76 412.09 67.76 411.94C67.76 410.09 67.76 404.51 67.76 402.66ZM77.33 411.26C78.18 411.99 79.28 412.38 80.41 412.35C82.04 412.5 83.48 411.3 83.63 409.67C83.63 409.64 83.64 409.6 83.64 409.57C83.64 407.76 82.07 406.95 80.71 406.4C79.57 405.94 79.05 405.49 79.05 404.83C79.12 404.22 79.67 403.78 80.28 403.85C80.99 403.95 81.65 404.22 82.23 404.62C82.42 404.71 82.64 404.63 82.73 404.45C82.78 404.37 83.21 403.73 83.26 403.65C83.36 403.5 83.32 403.3 83.18 403.19C82.36 402.6 81.38 402.27 80.37 402.25C78.84 402.05 77.44 403.13 77.24 404.67C77.23 404.76 77.22 404.85 77.22 404.94C77.22 406.6 78.53 407.44 79.85 407.97C81.03 408.45 81.63 408.94 81.63 409.66C81.59 410.3 81.02 410.79 80.38 410.74C80.37 410.74 80.36 410.74 80.36 410.74C79.59 410.63 78.86 410.33 78.24 409.87C78.09 409.76 77.89 409.79 77.78 409.94C77.77 409.95 77.77 409.96 77.76 409.97C77.71 410.05 77.31 410.75 77.25 410.84C77.13 411.06 77.2 411.13 77.33 411.26M88.48 411.94C88.49 412.09 88.6 412.2 88.75 412.21C88.88 412.21 89.93 412.21 90.06 412.21C90.2 412.2 90.32 412.09 90.32 411.94C90.32 411.42 90.32 408.8 90.32 404.07C91.61 404.07 92.32 404.07 92.47 404.07C92.62 404.07 92.73 403.95 92.74 403.81C92.74 403.69 92.74 402.77 92.74 402.66C92.73 402.51 92.62 402.39 92.47 402.39C91.85 402.39 86.95 402.39 86.34 402.39C86.19 402.39 86.07 402.51 86.07 402.66C86.07 402.77 86.07 403.69 86.07 403.81C86.07 403.95 86.19 404.07 86.34 404.07C86.48 404.07 87.2 404.07 88.48 404.07C88.48 408.27 88.48 410.89 88.48 411.94ZM105.03 411.94C105.03 412.09 105.15 412.21 105.29 412.21C105.41 412.21 106.38 412.21 106.5 412.21C106.65 412.2 106.76 412.09 106.76 411.94C106.76 411.04 106.76 403.84 106.76 402.94C106.76 402.79 106.65 402.68 106.5 402.67C106.44 402.67 106.11 402.67 105.52 402.67C104.31 403.69 103.64 404.25 103.5 404.37C103.44 404.44 103.41 404.53 103.43 404.62C103.44 404.69 103.51 405.24 103.52 405.31C103.54 405.43 103.66 405.52 103.79 405.49C103.79 405.49 103.79 405.49 103.8 405.49C103.88 405.47 104.29 405.38 105.03 405.22C105.03 408.81 105.03 411.05 105.03 411.94ZM110.01 409.66C110.16 408.65 110.79 407.77 111.7 407.31C111.7 407.31 111.7 407.28 111.7 407.27C110.87 406.85 110.32 406.03 110.26 405.1C110.56 403.4 112.19 402.27 113.88 402.58C115.17 402.81 116.17 403.81 116.4 405.1C116.32 406.02 115.78 406.83 114.96 407.26C114.96 407.26 114.96 407.31 114.96 407.31C115.9 407.73 116.55 408.63 116.66 409.66C116.66 411.19 115.37 412.35 113.3 412.35C111.3 412.35 110.01 411.19 110.01 409.66M113.33 406.5C114.2 406.3 114.61 405.77 114.61 405.17C114.58 404.48 114.01 403.95 113.33 403.97C113.32 403.97 113.31 403.97 113.3 403.98C112.63 403.96 112.07 404.49 112.05 405.17C112.05 405.8 112.45 406.29 113.33 406.5M111.87 409.63C111.97 410.43 112.71 411.01 113.51 410.91C114.18 410.82 114.71 410.3 114.79 409.63C114.8 408.82 114.16 408.16 113.36 408.14C112.55 408.13 111.89 408.77 111.87 409.57C111.87 409.59 111.87 409.61 111.87 409.63M119.31 410.17C119.16 410.18 119.04 410.06 119.04 409.91C119.04 409.91 119.04 409.91 119.04 409.91C119.04 409.83 119.04 409.44 119.04 408.74C122.07 405.06 123.76 403.01 124.09 402.6C124.15 402.54 124.23 402.52 124.3 402.52C124.38 402.52 124.99 402.52 125.06 402.52C125.21 402.52 125.33 402.63 125.33 402.78C125.33 402.78 125.33 402.78 125.33 402.78C125.33 403.18 125.33 405.17 125.33 408.76C126 408.76 126.38 408.76 126.45 408.76C126.59 408.75 126.71 408.86 126.72 409C126.72 409.01 126.72 409.01 126.72 409.01C126.72 409.1 126.72 409.8 126.72 409.88C126.72 410.03 126.6 410.15 126.45 410.15C126.38 410.15 126 410.15 125.33 410.15C125.34 411.23 125.34 411.82 125.34 411.94C125.34 412.09 125.22 412.21 125.08 412.21C124.96 412.21 124.03 412.21 123.91 412.21C123.77 412.21 123.65 412.09 123.64 411.94C123.64 411.83 123.64 411.24 123.64 410.17L119.31 410.17M123.7 408.72L123.7 405.35L120.89 408.72L123.7 408.72ZM129.13 411.19C129.84 411.96 130.85 412.39 131.9 412.35C133.71 412.41 135.23 411 135.29 409.18C135.29 409.17 135.29 409.15 135.29 409.14C135.38 407.5 134.12 406.1 132.48 406.02C132.34 406.01 132.21 406.01 132.08 406.02C132 406.02 131.6 406.02 130.87 406.02L130.87 404.16C132.74 404.16 133.78 404.16 133.99 404.16C134.13 404.16 134.25 404.04 134.25 403.89C134.25 403.89 134.25 403.89 134.25 403.89C134.25 403.79 134.25 403.03 134.25 402.94C134.25 402.79 134.14 402.67 133.99 402.67C133.99 402.67 133.99 402.67 133.99 402.67C133.54 402.67 130 402.67 129.55 402.67C129.41 402.67 129.29 402.79 129.29 402.93C129.29 402.93 129.29 402.93 129.29 402.94C129.29 403.35 129.29 406.66 129.29 407.08C129.28 407.33 129.47 407.55 129.72 407.57C129.94 407.57 131.67 407.57 131.88 407.57C132.73 407.48 133.49 408.09 133.57 408.94C133.58 409 133.58 409.07 133.58 409.14C133.6 410.03 132.88 410.78 131.99 410.79C131.98 410.79 131.96 410.79 131.95 410.79C131.28 410.74 130.64 410.47 130.14 410.01C130.05 409.92 129.9 409.93 129.81 410.02C129.74 410.09 129.17 410.64 129.1 410.71C128.94 410.88 128.95 410.98 129.13 411.19M95.8 411.12C95.8 411.73 96.3 412.23 96.92 412.23C97.53 412.23 98.03 411.74 98.03 411.12C98.03 410.5 97.54 410 96.92 410C96.92 410 96.92 410 96.92 410C96.3 410 95.8 410.5 95.8 411.11C95.8 411.11 95.8 411.12 95.8 411.12M97.31 408.98C99.14 408.98 100.62 407.51 100.62 405.68C100.63 403.86 99.15 402.38 97.33 402.37C97.32 402.37 97.32 402.37 97.31 402.37C97.1 402.37 95.41 402.37 95.2 402.37C95.01 402.38 94.85 402.53 94.85 402.72C94.85 403.31 94.85 408.04 94.85 408.63C94.85 408.82 95.01 408.97 95.2 408.98C95.34 408.98 96.04 408.98 97.31 408.98M96.37 403.82C96.87 403.82 97.15 403.82 97.2 403.82C98.23 403.84 99.04 404.68 99.03 405.7C99.01 406.7 98.2 407.51 97.2 407.52C97.15 407.52 96.87 407.52 96.37 407.52L96.37 403.82Z" id="cLYjIuqOy"></path><path d="M51.22 294.13C51.22 292.5 49.9 291.19 48.28 291.2C46.66 291.2 45.35 292.51 45.35 294.13C45.35 295.52 45.35 306.64 45.35 308.03C45.35 308.03 37.22 307.08 32.67 316.84C32.67 316.84 35.99 306.38 43.69 306.15C43.69 306.15 43.71 280.19 43.71 280.16C43.72 278.7 42.53 277.51 41.07 277.51C39.61 277.5 38.42 278.69 38.42 280.15C38.42 280.15 38.42 280.16 38.42 280.16C38.42 282.06 38.42 297.22 38.42 299.12C38.42 299.12 40.18 299.45 40.6 299.58C40.6 299.58 39.11 299.45 38.42 299.43C37.89 299.41 37.37 299.39 36.85 299.41C36.85 297.16 36.85 279.22 36.85 276.98C36.86 275.52 35.68 274.33 34.22 274.32C32.76 274.32 31.57 275.5 31.56 276.96C31.56 276.97 31.56 276.97 31.56 276.98C31.56 279.26 31.56 297.51 31.56 299.79C31.04 299.84 30.54 299.9 30.06 299.96C30.06 298.13 30.06 283.53 30.06 281.71C30.06 280.38 28.99 279.31 27.67 279.3C26.34 279.29 25.26 280.36 25.26 281.69C25.26 281.7 25.26 281.7 25.26 281.71C25.26 283.61 25.26 298.84 25.26 300.74C23.16 301.11 21.68 301.43 21.45 301.51C22.21 301.16 22.96 300.86 23.7 300.59C23.7 293.81 23.7 290.04 23.7 289.29C23.7 288.19 22.81 287.3 21.72 287.3C20.64 287.3 19.77 288.18 19.77 289.26C19.77 289.27 19.77 289.28 19.77 289.29C19.77 291.7 19.77 310.96 19.77 313.37C19.98 318.89 21.52 329.36 30.49 329.27C28.87 329.76 27.12 329.6 25.61 328.83C25.69 329.61 25.69 330.4 25.58 331.17C25.4 332.58 25.59 334.01 26.13 335.32C27.74 335.32 40.62 335.32 42.23 335.32C42.23 335.32 40.05 329.86 45.2 322.61C45.2 322.61 51.22 314.18 51.22 308.03C51.22 305.25 51.22 296.91 51.22 294.13ZM41.92 303.71C32.8 303.09 26.47 312.37 25.65 313.65C34.1 299.51 38.67 305.7 41.92 303.71Z" id="an990LnUl"></path><path d="M171.94 288.19C171.94 288.19 172.25 293.94 177.6 290.89C177.6 290.89 177.09 296.74 182.67 293.98C182.67 293.98 181.45 298.71 185.76 298.14C185.76 298.14 196.59 272.48 167.7 278.33C172.45 275.05 178.61 274.64 183.75 277.26C183.75 277.26 176.26 266.28 159.64 275.93C161.55 276.85 162.39 279.1 161.55 281.04C160.37 281.93 159.4 283.05 158.69 284.34C157.9 286.12 158.58 291.39 151.89 291.71C151.89 291.71 150.83 295.02 155.37 296.31C156.21 296.54 156.4 296.35 158.48 294.62C160.62 293.43 163.04 292.88 165.48 293.03C168.58 293.4 171.43 291.27 171.94 288.19ZM163.23 286.19C163.23 286.19 162.9 286.15 161.8 286.86C160.48 287.73 160.25 286.53 160.8 285.52C161.36 284.51 162.74 286.06 163.23 286.19Z" id="d6if1VKM4"></path><path d="M182.01 302.55C180.18 299.93 174.26 294.03 169.77 295.99C168.28 296.63 166.05 297.84 165.24 298.18C162.09 299.37 159.53 301.73 158.08 304.76C155.12 311.44 160.25 317.42 165.12 321.41C167.67 323.5 170.32 325.44 172.84 327.55C174.7 329.11 177.04 331.65 176.14 334.32C175.33 336.72 171.77 338.42 169.91 335.95C168.94 334.81 169.08 333.1 170.22 332.13C170.24 332.11 170.26 332.1 170.28 332.08C171.66 331.22 173.21 332.66 173.55 333.97C174.13 331.36 172.71 328.72 170.21 327.77C167.52 327.32 164.84 328.6 163.5 330.97C161.17 335.24 162.46 340.58 166.49 343.32C170.81 345.68 176.22 344.44 179.09 340.44C180.74 337.96 181.03 334.82 179.87 332.07C178.46 329.41 176.34 327.19 173.75 325.64C171.08 323.71 168.75 321.34 166.85 318.64C164.54 315.51 163.69 311.53 164.51 307.73C163.7 311.3 165.9 314.9 168.07 317.53C170.7 320.45 173.71 322.99 177.02 325.09C178.75 326.17 180.18 327.67 181.19 329.44C180.82 326.92 179.87 324.51 178.4 322.42C179.58 322.78 180.84 322.75 182 322.34C183.69 321.42 181.72 319.25 180.95 318.42C183.5 318.17 185.7 316.54 186.68 314.18C187.34 311.3 186.79 308.27 185.16 305.81C183.05 314.63 176.01 310.89 179.45 306.24C180.02 305.48 182.49 303.23 182.01 302.55Z" id="c8AbftqLx"></path><path d="M98.49 362.59C97.57 362.89 96.63 363.15 95.68 363.35C95.72 364.85 95.92 372.36 96.26 385.89L98.32 382.92C98.41 372.08 98.47 365.3 98.49 362.59ZM101.43 361.44C100.54 361.84 99.61 362.21 98.66 362.53C98.69 363.81 98.85 370.22 99.15 381.74L101.3 378.66C101.37 369.48 101.42 363.74 101.43 361.44ZM104.38 359.96C104 360.16 103.62 360.35 103.23 360.56C102.71 360.84 102.18 361.1 101.62 361.35C101.65 362.44 101.79 367.85 102.04 377.59L104.27 374.39C104.33 366.7 104.37 361.89 104.38 359.96ZM107.33 358.59C106.47 358.96 105.54 359.39 104.58 359.86C104.61 360.77 104.72 365.29 104.93 373.44L107.24 370.12C107.29 363.97 107.32 360.13 107.33 358.59ZM110.28 357.42C109.49 357.7 108.56 358.06 107.54 358.5C107.56 359.22 107.66 362.81 107.82 369.29L110.21 365.86C110.25 361.35 110.27 358.54 110.28 357.42ZM112.96 356.52C112.96 356.52 112.01 356.79 110.51 357.33C110.52 357.85 110.59 360.46 110.71 365.14L112.96 361.9C112.96 359.03 112.96 357.24 112.96 356.52ZM86.51 363.65C85.41 373.75 88.74 383.83 95.63 391.29C94.86 390.57 93.8 390.27 92.77 390.47C90.96 390.83 89.79 392.59 90.14 394.39C90.45 395.96 91.82 397.08 93.42 397.08C94.21 397.07 94.98 396.79 95.59 396.28C97.19 395.18 99.36 395.48 100.6 396.97C100.6 396.97 100.6 396.97 100.6 396.97C92.62 388.42 89.27 376.54 91.63 365.09C89.82 365.11 88.04 364.61 86.51 363.65ZM120.26 366.29C119.56 366.27 118.88 366.02 118.34 365.57C118.3 365.65 118.09 366.03 117.72 366.73L119.06 367.6C110.99 385.22 106.51 395.02 105.61 396.97C105.61 396.97 102.43 396.97 102.19 396.97C101.8 396.67 101.46 396.3 101.19 395.89C102.3 393.84 107.84 383.57 117.83 365.09L117.83 365.09C107.43 383.08 101.64 393.08 100.49 395.08C99.32 393.67 98.26 392.17 97.34 390.59C99.35 387.69 115.45 364.48 117.46 361.58C118.04 360.57 119.1 359.94 120.26 359.92C122.02 359.92 123.45 361.34 123.45 363.1C123.45 364.86 122.02 366.28 120.26 366.29ZM121.39 359.27C119.89 358.79 118.25 359.24 117.19 360.41C115.85 362.31 98.25 387.51 96.79 389.62C96.25 388.62 95.78 387.62 95.36 386.63C95.38 384.31 95.52 365.7 95.54 363.38C92.51 364.22 89.26 363.84 86.51 362.31C86.51 361.91 86.51 358.66 86.51 358.26C86.51 358.26 92.41 362.87 103.21 358.39C103.21 358.39 117.55 354.43 120.49 356.09C120.49 356.09 115.65 352.22 104.74 356.96C93.59 361.82 87.79 357.92 85.84 356.21C85.84 355.65 85.87 351.18 85.87 350.62C90.59 355.74 98.03 357.33 104.43 354.58C115.75 349.97 121.39 356.06 121.39 356.06C121.39 356.06 121.39 358.95 121.39 359.27Z" id="j4sXXxZ5"></path></defs><g><g><g><use xlink:href="#e19xOLBqGO" opacity="1" fill="#ffffff" fill-opacity="1"></use><g><use xlink:href="#e19xOLBqGO" opacity="1" fill-opacity="0" stroke="#000000" stroke-width="1" stroke-opacity="0"></use></g></g><g><use xlink:href="#d27iPldWuf" opacity="1" fill="#ffffff" fill-opacity="1"></use><g><use xlink:href="#d27iPldWuf" opacity="1" fill-opacity="0" stroke="#000000" stroke-width="1" stroke-opacity="0"></use></g></g><g><use xlink:href="#a2ceu0eDv" opacity="1" fill="#ffffff" fill-opacity="1"></use><g><use xlink:href="#a2ceu0eDv" opacity="1" fill-opacity="0" stroke="#000000" stroke-width="1" stroke-opacity="0"></use></g></g><g><use xlink:href="#a8tHrFthSC" opacity="1" fill="#ffffff" fill-opacity="1"></use><g><use xlink:href="#a8tHrFthSC" opacity="1" fill-opacity="0" stroke="#000000" stroke-width="1" stroke-opacity="0"></use></g></g><g><use xlink:href="#b3D2Dy1Qt0" opacity="1" fill="#e20613" fill-opacity="1"></use><g><use xlink:href="#b3D2Dy1Qt0" opacity="1" fill-opacity="0" stroke="#000000" stroke-width="1" stroke-opacity="0"></use></g></g><g><use xlink:href="#b5o4tM2lB" opacity="1" fill="#ffffff" fill-opacity="1"></use><g><use xlink:href="#b5o4tM2lB" opacity="1" fill-opacity="0" stroke="#000000" stroke-width="1" stroke-opacity="0"></use></g></g><g><use xlink:href="#e1wYSVYtry" opacity="1" fill="#ffffff" fill-opacity="1"></use><g><use xlink:href="#e1wYSVYtry" opacity="1" fill-opacity="0" stroke="#000000" stroke-width="1" stroke-opacity="0"></use></g></g><g><use xlink:href="#b6GY5fpdg" opacity="1" fill="#ffffff" fill-opacity="1"></use><g><use xlink:href="#b6GY5fpdg" opacity="1" fill-opacity="0" stroke="#000000" stroke-width="1" stroke-opacity="0"></use></g></g><g><use xlink:href="#a36aKSY6hM" opacity="1" fill="#e20613" fill-opacity="1"></use><g><use xlink:href="#a36aKSY6hM" opacity="1" fill-opacity="0" stroke="#000000" stroke-width="1" stroke-opacity="0"></use></g></g><g><use xlink:href="#cLYjIuqOy" opacity="1" fill="#e20613" fill-opacity="1"></use><g><use xlink:href="#cLYjIuqOy" opacity="1" fill-opacity="0" stroke="#000000" stroke-width="1" stroke-opacity="0"></use></g></g><g><use xlink:href="#an990LnUl" opacity="1" fill="#e20613" fill-opacity="1"></use><g><use xlink:href="#an990LnUl" opacity="1" fill-opacity="0" stroke="#000000" stroke-width="1" stroke-opacity="0"></use></g></g><g><use xlink:href="#d6if1VKM4" opacity="1" fill="#e20613" fill-opacity="1"></use><g><use xlink:href="#d6if1VKM4" opacity="1" fill-opacity="0" stroke="#000000" stroke-width="1" stroke-opacity="0"></use></g></g><g><use xlink:href="#c8AbftqLx" opacity="1" fill="#e20613" fill-opacity="1"></use><g><use xlink:href="#c8AbftqLx" opacity="1" fill-opacity="0" stroke="#000000" stroke-width="1" stroke-opacity="0"></use></g></g><g><use xlink:href="#j4sXXxZ5" opacity="1" fill="#e20613" fill-opacity="1"></use><g><use xlink:href="#j4sXXxZ5" opacity="1" fill-opacity="0" stroke="#000000" stroke-width="1" stroke-opacity="0"></use></g></g></g></g></svg>