<svg id="Layer_1" data-name="Layer 1" xmlns="http://www.w3.org/2000/svg" viewBox="0 0 250 90"><defs><style>.cls-1{fill:#fff;}.cls-2{fill:#e20613;}</style></defs><title>Artboard 1</title><path class="cls-1" d="M108.16208,21.49253a10.65132,10.65132,0,1,0-3.65926,1.73274l1.15543,1.64851a.87685.87685,0,0,0,.73022.51271h3.849c.28374,0,.41539-.22978.29518-.51271Zm-12.45458-8.456A6.242,6.242,0,1,1,105.71794,18.005l-.54214-.77274a.87688.87688,0,0,0-.73022-.51271h-3.849c-.28293,0-.4154.22978-.2952.51271l1.42691,2.03529a6.23707,6.23707,0,0,1-6.02082-6.231"/><path class="cls-1" d="M122.84741,23.45684a7.74434,7.74434,0,0,1-8.07084-7.75846V3.63629a.72091.72091,0,0,1,.70242-.70242h2.70254a.70285.70285,0,0,1,.70242.70242V15.49967a3.73836,3.73836,0,0,0,3.96346,3.934,3.7782,3.7782,0,0,0,3.99125-3.9054V3.63629a.7039.7039,0,0,1,.70241-.70242h2.70255a.72091.72091,0,0,1,.70241.70242V15.69838a7.7594,7.7594,0,0,1-8.09862,7.75846"/><path class="cls-1" d="M145.638,23.17252H134.06a.70476.70476,0,0,1-.704-.70241V3.63653a.70424.70424,0,0,1,.704-.70241h11.578a.70285.70285,0,0,1,.70241.70241V5.96947a.70355.70355,0,0,1-.70241.70324h-8.25891v4.34042h6.86471a.7205.7205,0,0,1,.70241.70323v2.36156a.70285.70285,0,0,1-.70241.70241h-6.86471v4.6536H145.638a.70285.70285,0,0,1,.70241.70242v2.33376a.70337.70337,0,0,1-.70241.70241"/><path class="cls-1" d="M161.2392,23.17252H149.66038a.70459.70459,0,0,1-.70323-.70241V3.63653a.70407.70407,0,0,1,.70323-.70241H161.2392a.70284.70284,0,0,1,.70241.70241V5.96947a.70354.70354,0,0,1-.70241.70324h-8.25891v4.34042h6.86552a.72034.72034,0,0,1,.7016.70323v2.36156a.70267.70267,0,0,1-.7016.70241h-6.86552v4.6536h8.25891a.70285.70285,0,0,1,.70241.70242v2.33376a.70336.70336,0,0,1-.70241.70241"/><path class="cls-1" d="M181.14456,23.45684h-.39824a.79064.79064,0,0,1-.59856-.24613L168.70468,10.595v11.874a.70371.70371,0,0,1-.70324.70322h-2.58805a.72252.72252,0,0,1-.70406-.70322V3.32311a.69942.69942,0,0,1,.70406-.6738h.426a.79073.79073,0,0,1,.59858.24613l11.38583,12.14141V3.63629a.70425.70425,0,0,1,.704-.70242h2.61669a.72091.72091,0,0,1,.70241.70242V22.783a.6974.6974,0,0,1-.70241.6738"/><path class="cls-1" d="M185.54941,8.819a.77922.77922,0,0,1-.39087-.13819l-.74984-.5356c-.12184-.09158-.3598-.3508-.00573-.82425a5.51349,5.51349,0,0,0,1.29445-3.14166,1.89894,1.89894,0,0,0-.01718-.26412,1.83052,1.83052,0,0,1-.78582.17663A1.80675,1.80675,0,0,1,183.10035,2.086,2.10767,2.10767,0,0,1,185.318,0c1.26336,0,2.53653,1.02132,2.53653,3.30438a8.69692,8.69692,0,0,1-1.93878,5.31187.44575.44575,0,0,1-.36634.20278"/><path class="cls-1" d="M195.11281,23.45684a9.06855,9.06855,0,0,1-6.36509-2.2577.69617.69617,0,0,1-.17744-1.05649l1.02541-1.76544a.79574.79574,0,0,1,.54214-.395.84527.84527,0,0,1,.66481.14883,6.70636,6.70636,0,0,0,4.19568,1.73028,2.23072,2.23072,0,0,0,2.427-2.02875c0-1.292-1.04995-2.2667-3.51208-3.26349-2.33866-.94528-5.44924-2.62731-5.44924-6.29558,0-2.70827,2.0541-5.62423,6.56379-5.62423a10.23454,10.23454,0,0,1,5.78777,1.9388.76449.76449,0,0,1,.32218.498.86148.86148,0,0,1-.11694.664l-1.07937,1.61825a1.19015,1.19015,0,0,1-.52907.444.72351.72351,0,0,1-.691-.05806l-.20934-.13083A6.73075,6.73075,0,0,0,194.85687,6.217c-1.61744,0-2.34112.91911-2.34112,1.82922,0,1.21431.94364,2.09335,3.25614,3.03618,2.98955,1.202,6.04617,2.92332,6.04617,6.57932,0,2.80966-2.35012,5.79513-6.70525,5.79513"/><path class="cls-1" d="M127.27614,50.53157h-.39824a.79019.79019,0,0,1-.59937-.247L114.83545,37.66894V49.54377a.70355.70355,0,0,1-.70242.70323h-2.58888a.7218.7218,0,0,1-.70324-.70323V30.39783a.69868.69868,0,0,1,.70324-.67379h.426a.7865.7865,0,0,1,.59856.24613L123.9554,42.11076V30.711a.70356.70356,0,0,1,.70324-.70242h2.6175a.72149.72149,0,0,1,.70241.70242V49.85777a.69849.69849,0,0,1-.70241.6738"/><path class="cls-1" d="M135.21368,50.24888h-2.6453a.72177.72177,0,0,1-.70323-.70323V30.71208a.72091.72091,0,0,1,.70323-.7016h2.6453a.72019.72019,0,0,1,.70241.7016V49.54565a.72105.72105,0,0,1-.70241.70323"/><path class="cls-1" d="M148.1342,50.5332h-.28457a.67282.67282,0,0,1-.62881-.40231l-.00246-.00572-8.79042-19.14594a.68083.68083,0,0,1,.02862-.66317.69221.69221,0,0,1,.60266-.30582h2.90125a.68234.68234,0,0,1,.63535.41458l5.41082,12.05473,5.41325-12.06046a.67763.67763,0,0,1,.63128-.40885h2.90206a.6922.6922,0,0,1,.60266.30582.68229.68229,0,0,1,.02862.664l-8.81985,19.14512a.67355.67355,0,0,1-.63046.408"/><path class="cls-1" d="M172.22722,50.29042H160.6484a.70476.70476,0,0,1-.70323-.70323V30.75444a.70408.70408,0,0,1,.70323-.70242h11.57882a.70233.70233,0,0,1,.70241.70242v2.33212a.7032.7032,0,0,1-.70241.70405h-8.25891V38.131H170.833a.72049.72049,0,0,1,.70241.70323V41.195a.703.703,0,0,1-.70241.70324h-6.86471v4.65442h8.25891a.70162.70162,0,0,1,.70241.7016v2.33293a.703.703,0,0,1-.70241.70323"/><path class="cls-1" d="M190.57639,50.29018h-2.98711a.64591.64591,0,0,1-.601-.34589l-3.73859-7.44855H180.355V49.587a.72138.72138,0,0,1-.70406.70323h-2.61668a.70355.70355,0,0,1-.70241-.70323V30.7542a.7039.7039,0,0,1,.70241-.70242h8.13625a6.32991,6.32991,0,0,1,6.36507,6.27922,6.399,6.399,0,0,1-4.145,5.827l3.81136,7.06832a.74317.74317,0,0,1-.00083.73185.70168.70168,0,0,1-.62472.332m-10.1928-11.16342h4.47453a2.73406,2.73406,0,0,0,2.65348-2.73934,2.66174,2.66174,0,0,0-2.65348-2.597h-4.47453Z"/><path class="cls-1" d="M200.52853,50.57474a9.0685,9.0685,0,0,1-6.36509-2.2577.6966.6966,0,0,1-.17826-1.0573l1.02542-1.76463a.799.799,0,0,1,.54295-.395.8468.8468,0,0,1,.6648.14883,6.70259,6.70259,0,0,0,4.19569,1.73028,2.22994,2.22994,0,0,0,2.42616-2.02875c0-1.29116-1.04994-2.26751-3.51127-3.26431-2.33947-.94446-5.45005-2.62567-5.45005-6.29475,0-2.70827,2.05491-5.62423,6.5646-5.62423a10.23465,10.23465,0,0,1,5.78614,1.938.76033.76033,0,0,1,.323.49881.85868.85868,0,0,1-.11611.66317l-1.07938,1.61907a1.20473,1.20473,0,0,1-.52988.44483.73042.73042,0,0,1-.691-.05805l-.20851-.13165a6.73071,6.73071,0,0,0-3.65518-1.40647c-1.61743,0-2.34112.91911-2.34112,1.82922,0,1.21431.94365,2.09335,3.25532,3.03535,2.98957,1.202,6.047,2.92415,6.047,6.58014,0,2.80967-2.35011,5.79513-6.70524,5.79513"/><path class="cls-1" d="M214.01042,50.29042h-2.64614a.72122.72122,0,0,1-.70323-.70323V30.75444a.72108.72108,0,0,1,.70323-.70242h2.64614a.72034.72034,0,0,1,.70239.70242V49.58719a.72049.72049,0,0,1-.70239.70323"/><path class="cls-1" d="M225.11268,50.24888h-2.64532a.72176.72176,0,0,1-.70322-.70323V33.74825h-4.19078a.70459.70459,0,0,1-.70242-.70323V30.71208a.70373.70373,0,0,1,.70242-.7016h12.4325a.70339.70339,0,0,1,.70324.7016V33.045a.70425.70425,0,0,1-.70324.70323h-4.19078v15.7974a.72106.72106,0,0,1-.7024.70323"/><path class="cls-1" d="M242.22716,50.24888h-2.61669a.70478.70478,0,0,1-.70325-.70323V40.54917l-6.45746-9.46094a.70867.70867,0,0,1-.03189-.7294.69414.69414,0,0,1,.62062-.34835h2.90208a.7107.7107,0,0,1,.58466.32137l4.42221,6.35526,4.41809-6.352a.71878.71878,0,0,1,.58958-.32464H248.885a.6938.6938,0,0,1,.61982.34753.70807.70807,0,0,1-.027.7245l-6.54742,9.43886v9.02428a.72178.72178,0,0,1-.70322.70323"/><path class="cls-1" d="M99.428,50.5763a7.71863,7.71863,0,0,1-8.04385-7.73148V30.76229a.68071.68071,0,0,1,.66317-.664h2.70663a.66446.66446,0,0,1,.664.664v11.883A3.78385,3.78385,0,0,0,99.428,46.62756a3.82389,3.82389,0,0,0,4.03868-3.95364V30.76229a.665.665,0,0,1,.664-.664h2.70745a.6807.6807,0,0,1,.66316.664V42.84482A7.73413,7.73413,0,0,1,99.428,50.5763"/><path class="cls-1" d="M100.87537,64.90108a4.61881,4.61881,0,0,0,2.60032-4.23493c0-2.81457-2.33212-4.95944-5.576-4.95944H91.89524a.50941.50941,0,0,0-.51025.50862V73.96216a.5101.5101,0,0,0,.51025.50944H98.1949c3.37716,0,5.84338-2.17185,5.84338-5.17367a4.53057,4.53057,0,0,0-3.16291-4.34206Zm-6.75595-1.045v-5.63H97.6315a2.60548,2.60548,0,0,1,2.86772,2.7606A2.7294,2.7294,0,0,1,97.6315,63.856Zm-.02616,8.14933V66.2683H98.275a2.74214,2.74214,0,0,1,2.78758,2.81538A2.66662,2.66662,0,0,1,98.275,72.00537Z"/><path class="cls-1" d="M106.149,73.96175a.50886.50886,0,0,0,.50942.50944h10.72186a.50833.50833,0,0,0,.50943-.50944V72.4866a.50816.50816,0,0,0-.50943-.50862h-8.46987V66.21474h7.15744a.50871.50871,0,0,0,.50863-.50944V64.204a.5264.5264,0,0,0-.50863-.50862h-7.15744V58.2265h8.46987a.50833.50833,0,0,0,.50943-.50944V56.21574a.50816.50816,0,0,0-.50943-.50862H106.65839a.50869.50869,0,0,0-.50942.50862Z"/><path class="cls-1" d="M120.77917,73.96175a.50869.50869,0,0,0,.50861.50944h9.54353a.5094.5094,0,0,0,.50944-.50944V72.4866a.50923.50923,0,0,0-.50944-.50862h-7.26456V56.21574a.52712.52712,0,0,0-.50944-.50862h-1.76953a.50851.50851,0,0,0-.50861.50862Z"/><path class="cls-1" d="M133.39861,73.96175a.50869.50869,0,0,0,.50861.50944h1.74337a.52711.52711,0,0,0,.50861-.50944v-7.0495h7.15745a.52727.52727,0,0,0,.50944-.50944V64.92766a.52713.52713,0,0,0-.50944-.50862H136.1592V58.2265h8.47069a.50886.50886,0,0,0,.50943-.50944V56.21574a.50869.50869,0,0,0-.50943-.50862H133.90722a.50851.50851,0,0,0-.50861.50862Z"/><path class="cls-1" d="M144.62351,74.47143h1.68857a.674.674,0,0,0,.61655-.40149l1.63543-3.67317h8.76508l1.66241,3.67317a.62389.62389,0,0,0,.61655.40149h1.68858a.4735.4735,0,0,0,.45629-.69669l-8.17632-18.0412a.62845.62845,0,0,0-.45546-.296H152.853a.62986.62986,0,0,0-.45628.296l-8.22947,18.0412a.47326.47326,0,0,0,.45629.69669m4.9856-6.3798,3.27085-7.3447h.1341l3.2962,7.3447Z"/><path class="cls-1" d="M163.73061,72.62185a8.68358,8.68358,0,0,0,5.76323,2.11787c3.48591,0,5.97748-2.279,5.97748-5.06655,0-3.27-2.65347-4.74519-5.76242-6.00446-2.225-.91175-3.405-1.84967-3.405-3.378,0-.99188.77765-2.41225,3.02963-2.41225a6.30478,6.30478,0,0,1,3.61839,1.33941.63407.63407,0,0,0,.93873-.26821l.6697-1.01805a.63675.63675,0,0,0-.16108-.91175,9.074,9.074,0,0,0-4.95862-1.58146c-4.26191,0-5.87036,2.86854-5.87036,4.96025,0,3.109,2.144,4.52931,4.87848,5.68229,2.65429,1.099,4.04767,2.11788,4.04767,3.72632,0,1.3664-1.17995,2.49239-3.0288,2.49239a5.91388,5.91388,0,0,1-4.2889-1.84885.60493.60493,0,0,0-.91257.21424l-.69588,1.09819c-.296.45628-.081.64354.16028.8586"/><path class="cls-1" d="M181.36255,73.96175a.528.528,0,0,0,.51025.50944h1.76871a.52784.52784,0,0,0,.50943-.50944V58.2265h4.36987a.50869.50869,0,0,0,.50861-.50944V56.21574a.50851.50851,0,0,0-.50861-.50862h-11.5273a.5087.5087,0,0,0-.50944.50862v1.50132a.50887.50887,0,0,0,.50944.50944h4.369Z"/><path class="cls-1" d="M0,.25525V50.34036a39.65952,39.65952,0,1,0,79.319,0V.25525Z"/><path class="cls-2" d="M74.96355,4.61074h-7.009L39.65964,32.90562l-.00012-.00006-.00012.00006L11.36451,4.61074h-7.009v8.00373L32.15308,40.412,7.55431,65.01071a35.05962,35.05962,0,0,0,5.97483,9.038L39.6594,47.91838l.00012.00006.00012-.00006L65.7899,74.0487a35.05988,35.05988,0,0,0,5.97483-9.038L47.166,40.412,74.96355,12.61447Z"/><path class="cls-1" d="M46.23175,38.71332c-1.05857-.77224-2.02871.95037-2.02871.95037-.66464-.9009-1.304.0756-1.304.0756.89642.61905.81784,2.07242-.88093,1.70523a2.29775,2.29775,0,0,1-1.88226-1.83617l1.27395.46764-.001-2.116-1.21662.45412.40743-1.48636H38.69128l.40751,1.48636L37.88117,37.96l-.001,2.116,1.27485-.46764a2.29781,2.29781,0,0,1-1.88316,1.83617c-1.69877.36719-1.77646-1.08618-.87994-1.70523,0,0-.63939-.9765-1.303-.0756,0,0-.97115-1.72261-2.02961-.95037,0,0,1.49313,1.84391,1.6775,6.75652,0,0,1.40678-.90418,4.90924-.86831,3.50144-.03587,4.90822.86831,4.90822.86831.18429-4.91261,1.67751-6.75652,1.67751-6.75652"/><path class="cls-1" d="M33.97979,37.84419a1.74107,1.74107,0,0,1,.31366.10317,5.92692,5.92692,0,0,1,10.73213,0,1.7374,1.7374,0,0,1,.31367-.10322,1.56086,1.56086,0,0,1,.96594.09657,7.116,7.116,0,0,0-5.55006-4.49949l-1.09549,1.09549-.00012-.00006-.00012.00006-1.09549-1.09549a7.11606,7.11606,0,0,0-5.55006,4.49933A1.56062,1.56062,0,0,1,33.97979,37.84419Z"/><path class="cls-1" d="M39.64594,46.05784l.00012-.00006,1.33111,1.3311c1.79268-.12783,3.093-.50679,3.093-.95457,0-.55275-1.98077-1.00083-4.42418-1.00083s-4.42414.44808-4.42414,1.00083c0,.44778,1.30024.82674,3.09294.95457l1.33108-1.3311Z"/><path class="cls-2" d="M48.28358,6.10647A1.22794,1.22794,0,0,1,49.512,7.33283V20.66535H41.03717a1.45856,1.45856,0,0,1-1.37677,1.00223h-.00287a1.45828,1.45828,0,0,1-1.3758-1.00223H29.80709V7.33283a1.22775,1.22775,0,0,1,1.22824-1.22636V19.44435h7.292a1.37085,1.37085,0,0,1,1.33219,1.21623,1.3714,1.3714,0,0,1,1.33305-1.21623h7.291V6.10647m-4.66184-.57185a4.3609,4.3609,0,0,0,3.41809.57284V18.2321a4.36088,4.36088,0,0,1-3.41809-.57285c-1.39417-1.092-3.92925-.18191-3.96134,1.12155v.02375l-.00088-.01113-.002.01113V18.7808c-.031-1.30346-2.56717-2.21359-3.96036-1.12155a4.36067,4.36067,0,0,1-3.418.57285V6.10746a4.36069,4.36069,0,0,0,3.418-.57284c1.398-1.09592,3.94674-.17615,3.96235,1.13367.01548-1.30982,2.56419-2.22959,3.96222-1.13367m-5.76105,8.55274a2.7261,2.7261,0,0,0-2.13638.28046,3.2696,3.2696,0,0,1-1.94139.5341v.87169a3.25967,3.25967,0,0,0,1.94139-.5336,2.72589,2.72589,0,0,1,2.13638-.28037Zm0-3.25934a2.72276,2.72276,0,0,0-2.13638.27987,3.26366,3.26366,0,0,1-1.94139.5336v.87228a3.26478,3.26478,0,0,0,1.94139-.5337,2.72279,2.72279,0,0,1,2.13638-.27986Zm0-3.25993a2.72605,2.72605,0,0,0-2.13638.28046,3.26647,3.26647,0,0,1-1.94139.53311v.87218a3.26959,3.26959,0,0,0,1.94139-.53311,2.72592,2.72592,0,0,1,2.13638-.28036ZM45.536,14.90192a3.26961,3.26961,0,0,1-1.9414-.5341,2.72637,2.72637,0,0,0-2.1364-.28046v.87228a2.72617,2.72617,0,0,1,2.1364.28037,3.25969,3.25969,0,0,0,1.9414.5336Zm0-3.26043a3.26367,3.26367,0,0,1-1.9414-.5336,2.723,2.723,0,0,0-2.1364-.27987v.87219a2.72306,2.72306,0,0,1,2.1364.27986,3.26479,3.26479,0,0,0,1.9414.5337Zm0-3.25983a3.26648,3.26648,0,0,1-1.9414-.53311,2.72632,2.72632,0,0,0-2.1364-.28046v.87228a2.72619,2.72619,0,0,1,2.1364.28036,3.26961,3.26961,0,0,0,1.9414.53311Z"/><path class="cls-2" d="M26.47056,77.28711a.10409.10409,0,0,1,.10282-.10432h2.23148a.10436.10436,0,0,1,.10382.10432v.44926a.104.104,0,0,1-.10382.10422H27.18269v.89891h1.35343a.10779.10779,0,0,1,.10471.10431v.455a.10417.10417,0,0,1-.10471.10432H27.18269v.95812h1.62217a.104.104,0,0,1,.10382.10421v.45025a.10317.10317,0,0,1-.10382.10283H26.57338a.10289.10289,0,0,1-.10282-.10283ZM30.20578,80.647a1.75809,1.75809,0,0,0,1.205.4268,1.157,1.157,0,0,0,1.26034-1.08469c0-.70727-.61318-1.02449-1.1449-1.23888-.44428-.181-.64706-.35557-.64706-.61318a.4365.4365,0,0,1,.48214-.38419,1.79419,1.79419,0,0,1,.76163.30173.14623.14623,0,0,0,.19312-.06548l.20754-.31294a.13582.13582,0,0,0-.033-.18092,1.9261,1.9261,0,0,0-1.09532-.3663,1.09332,1.09332,0,0,0-1.23312,1.05171c0,.64616.51425.9761,1.02936,1.18364.46088.18678.69663.37842.69663.65829a.45754.45754,0,0,1-.49873.42153,1.80847,1.80847,0,0,1-.82758-.34.12821.12821,0,0,0-.18628.03875l-.19788.34007c-.04949.08733-.02138.115.0281.164m4.35823.26873a.10621.10621,0,0,0,.10283.10283h.51125a.1071.1071,0,0,0,.10382-.10283V77.84059h.83831a.10479.10479,0,0,0,.10471-.10422v-.44926a.10513.10513,0,0,0-.10471-.10432H33.72571a.10522.10522,0,0,0-.10481.10432v.44926a.10488.10488,0,0,0,.10481.10422h.8383Zm6.46344,0a.103.103,0,0,0,.10283.10283h.47252a.10213.10213,0,0,0,.09893-.10283V77.3968a.10262.10262,0,0,0-.09893-.10382h-.38321l-.78972.66315a.11649.11649,0,0,0-.02721.09894l.033.26825a.09017.09017,0,0,0,.10968.07084l.48214-.10432Zm1.94426-.89364a1.23081,1.23081,0,0,1,.66266-.9158v-.016a1.0294,1.0294,0,0,1-.5646-.84943,1.21945,1.21945,0,0,1,2.40027,0,1.05163,1.05163,0,0,1-.5647.84358v.02185a1.12678,1.12678,0,0,1,.66365.9158c0,.59718-.50449,1.0522-1.31071,1.0522-.783,0-1.28657-.455-1.28657-1.0522m1.29819-1.23262c.33958-.07759.49864-.28523.49864-.521a.48307.48307,0,0,0-.51026-.46564.47749.47749,0,0,0-.48711.46564c0,.24649.1533.43853.49873.521m-.56956,1.222a.57384.57384,0,0,0,1.139,0,.56961.56961,0,1,0-1.139,0m2.90486.213a.10407.10407,0,0,1-.10482-.10332V79.666l1.97339-2.40116a.11563.11563,0,0,1,.08246-.03159h.29694a.1034.1034,0,0,1,.10381.10431v2.33331h.43754a.10037.10037,0,0,1,.10481.09945v.34007a.10438.10438,0,0,1-.10481.10332H48.957l.00477.702a.10841.10841,0,0,1-.10372.10472h-.45511a.10858.10858,0,0,1-.10472-.10472v-.69127h-1.693m1.71526-.56907V78.33982l-1.09632,1.31557Zm2.12189.96438a1.40076,1.40076,0,0,0,1.07982.455,1.28252,1.28252,0,0,0,1.32631-1.25587A1.16072,1.16072,0,0,0,51.594,78.60269h-.47159v-.72912h1.21671a.10332.10332,0,0,0,.10372-.10422V77.3968a.10313.10313,0,0,0-.10372-.10333H50.60727a.10258.10258,0,0,0-.1038.10333v1.6173a.18226.18226,0,0,0,.16977.19164h.84406a.60079.60079,0,0,1,.66266.61318.63518.63518,0,0,1-.63543.64756,1.18,1.18,0,0,1-.70737-.30709.09484.09484,0,0,0-.13193.00537l-.27361.26923c-.066.06448-.06011.10332.01073.18578m-13.01916-.02712a.43559.43559,0,1,0,.43464-.43515.43408.43408,0,0,0-.43464.43515m.58893-.83632a1.29015,1.29015,0,1,0,0-2.58029h-.82569a.13807.13807,0,0,0-.13392.1383v2.30519a.13576.13576,0,0,0,.13392.1368h.82569m-.3668-2.01469h.32507a.72341.72341,0,0,1,0,1.44662h-.32507Z"/><path class="cls-2" d="M20.0094,34.89289a1.14823,1.14823,0,0,0-2.29645,0l.0009,5.4307s-3.1735-.36859-4.95086,3.44234c0,0,1.29422-4.08553,4.30479-4.17574,0,0,.00676-10.14063.00676-10.15127a1.03378,1.03378,0,1,0-2.06755,0V36.843s.6869.13055.85094.181c0,0-.58173-.05027-.85094-.06071-.20653-.008-.41031-.01261-.6112-.00774V28.19418a1.03328,1.03328,0,1,0-2.06655,0v8.91141c-.20565.02086-.39869.04261-.58884.06536V30.04287a.93727.93727,0,1,0-1.87452.00035V37.478c-.8202.144-1.39639.26888-1.48614.29821q.44406-.20061.87982-.35693V33.00347a.7773.7773,0,0,0-.77711-.77711.762.762,0,0,0-.75972.77711V42.411c.08317,2.15713.68183,6.24666,4.18934,6.21177a2.56488,2.56488,0,0,1-1.9074-.17365,3.91379,3.91379,0,0,1-.01072.91578,3.17581,3.17581,0,0,0,.21151,1.6198h6.29176s-.85182-2.13391,1.1594-4.96645c0,0,2.35179-3.29342,2.35179-5.69468ZM10.01829,42.5202c3.30255-5.5239,6.35673-3.88475,6.35673-3.88475C12.81336,38.39581,10.34037,42.02146,10.01829,42.5202Z"/><path class="cls-2" d="M64.64212,34.4635A2.27931,2.27931,0,0,0,67.16333,32.573s.12232,2.24777,2.21028,1.05508c0,0-.198,2.28408,1.9811,1.20688,0,0-.47765,1.84968,1.20789,1.62753,0,0,4.22895-10.02582-7.05339-7.74055a6.11948,6.11948,0,0,1,6.26652-.41574s-2.92591-4.28911-9.41483-.52074a1.54023,1.54023,0,0,1,.746,1.99758,4.00488,4.00488,0,0,0-1.11716,1.28849c-.31153.69508-.04512,2.75385-2.65587,2.87963,0,0-.41784,1.29251,1.3581,1.79373.32791.09256.40041.01627,1.21468-.65738A5.00241,5.00241,0,0,1,64.64212,34.4635ZM62.8132,31.53289c.21624-.3945.94677.26.94677.26s-.12814-.015-.55515.263C62.68763,32.39261,62.597,31.92734,62.8132,31.53289Z"/><path class="cls-2" d="M70.099,39.62349c.21969-.29692,1.18523-1.17345.99808-1.44143-.71431-1.02282-3.026-3.32669-4.78184-2.56269-.57948.25214-1.45246.72489-1.77014.85841a5.08094,5.08094,0,0,0-2.79321,2.5704c-1.1572,2.60887.84516,4.94409,2.74885,6.50443.99349.8143,2.03136,1.5727,3.0168,2.39742.72533.60705,1.63823,1.60107,1.28666,2.64334-.31686.93934-1.70787,1.603-2.43484.63573A1.057,1.057,0,0,1,66.515,49.719c.54045-.33808,1.14553.22491,1.27678.73753a2.098,2.098,0,0,0-1.3037-2.41951,2.52468,2.52468,0,0,0-2.6201,1.24719,3.69513,3.69513,0,0,0,1.1654,4.8255,3.81486,3.81486,0,0,0,4.92342-1.12681,3.4622,3.4622,0,0,0,.30651-3.26712,6.47833,6.47833,0,0,0-2.3912-2.51084,11.69755,11.69755,0,0,1-2.69758-2.73737,5.29628,5.29628,0,0,1-.91182-4.25963c-.31655,1.39167.54168,2.8,1.39155,3.8281A16.7924,16.7924,0,0,0,69.148,46.9876a4.79728,4.79728,0,0,1,1.62963,1.70111,6.38193,6.38193,0,0,0-1.08946-2.74244,2.27619,2.27619,0,0,0,1.40733-.03143c.65674-.35925-.11037-1.20908-.41-1.533a2.703,2.703,0,0,0,2.23536-1.65468,4.20712,4.20712,0,0,0-.59279-3.271C71.5028,42.90132,68.75432,41.441,70.099,39.62349Z"/><path class="cls-2" d="M38.4717,61.636a10.03418,10.03418,0,0,1-1.09476.29758l.22516,8.803.8059-1.15713Zm1.15089-.448c-.34819.15744-.7122.30088-1.08449.4261l.19189,7.503.83869-1.20422Zm1.15172-.57714c-.149.075-.29922.152-.45124.23348-.20019.10726-.41084.20993-.6262.30911l.16221,6.3425.87-1.24923Zm1.1518-.53641c-.33783.14545-.69859.31106-1.07276.49721l.13561,5.302.901-1.29375Zm1.15151-.459c-.30847.113-.66983.25356-1.06794.42306l.10781,4.21476.93368-1.34062Zm1.04883-.35013s-.37079.10484-.95944.31748l.078,3.05147.8814-1.26553Zm-8.33216,3.34736a3.66381,3.66381,0,0,1-2.00174-.56163,13.72121,13.72121,0,0,0,3.562,10.79532,1.27094,1.27094,0,0,0-1.11642-.31717,1.30293,1.30293,0,0,0,.25289,2.58113,1.35748,1.35748,0,0,0,.84894-.31384,1.46741,1.46741,0,0,1,1.95584.26927h0A14.08118,14.08118,0,0,1,35.79429,62.61267Zm12.42741-.77631a1.24475,1.24475,0,0,1-1.24385,1.24385,1.21632,1.21632,0,0,1-.75088-.27847l-.24351.45114.52586.34108-5.25466,11.4741s-1.243.00008-1.33676,0a1.9039,1.9039,0,0,1-.39245-.424l6.50362-12.03-.001-.002L39.253,74.32788a13.04661,13.04661,0,0,1-1.22947-1.7519l7.861-11.33284a1.29182,1.29182,0,0,1,1.09332-.65052A1.24441,1.24441,0,0,1,48.2217,61.83636Zm-.80433-2.74858v1.25061a1.5628,1.5628,0,0,0-1.63852.44645c-.52533.74291-7.39806,10.588-7.97093,11.40866-.21026-.38819-.39571-.77766-.55925-1.16565l.07283-9.08424a4.68623,4.68623,0,0,1-3.52863-.41455v-1.585s2.30345,1.802,6.52265.05286,5.60184-1.54739,6.74967-.89842c0,0-1.89128-1.51445-6.15156.34063-4.35482,1.89625-6.62021.37183-7.38175-.295l.01063-2.18351a6.41825,6.41825,0,0,0,7.25239,1.54831C45.21365,56.70757,47.41737,59.08778,47.41737,59.08778Z"/></svg>